<svg width="402" height="689" viewBox="0 0 402 689" fill="none" xmlns="http://www.w3.org/2000/svg">
<path d="M19.4331 261.908H96.8569C127.115 261.908 158.262 258.806 180.065 228.228H182.735L133.344 327.939H-66L-65.555 326.166L-4.14997 270.771C62.5947 210.944 107.981 151.561 107.981 93.0637C107.981 58.9403 88.8476 43.4297 62.1497 43.4297C37.2317 43.4297 10.9788 57.6108 -6.81975 101.041H-9.48954C8.30904 33.237 55.4753 0 106.646 0C157.372 0 190.744 28.3622 190.744 70.0193C190.744 140.039 107.536 195.434 19.4331 261.908Z" fill="white" fill-opacity="0.1"/>
<path d="M313.262 333.257C243.403 333.257 209.141 288.941 209.141 218.478C209.141 111.676 267.876 0 364.878 0C434.738 0 469 44.316 469 115.222C469 221.58 410.265 333.257 313.262 333.257ZM307.033 326.609C351.529 326.609 394.691 131.175 394.691 51.8498C394.691 23.9306 388.017 6.6474 371.108 6.6474C326.611 6.6474 283.45 202.081 283.45 281.407C283.45 309.326 289.679 326.609 307.033 326.609Z" fill="white" fill-opacity="0.1"/>
<path d="M37.9009 622.969H115.325C145.582 622.969 176.73 619.867 198.533 589.289H201.203L151.812 689H-47.5322L-47.0873 687.227L14.3178 631.832C81.0624 572.006 126.449 512.622 126.449 454.125C126.449 420.002 107.315 404.491 80.6175 404.491C55.6995 404.491 29.4466 418.672 11.648 462.102H8.97822C26.7768 394.298 73.943 361.061 125.114 361.061C175.84 361.061 209.212 389.424 209.212 431.081C209.212 501.1 126.004 556.495 37.9009 622.969Z" fill="white" fill-opacity="0.1"/>
<path d="M427.293 611.004H387.691L381.017 642.911C375.232 671.274 373.008 686.341 391.251 686.341L390.806 689H269.776L270.221 686.341C288.464 686.341 293.359 671.274 299.144 642.911L305.818 611.004H212.821L208.371 587.073L439.752 355.743H442.422L397.481 566.688H418.839C432.188 566.688 440.197 565.801 447.317 558.711H449.987L427.293 611.004ZM336.076 470.079L239.518 566.688H315.607L336.076 470.079Z" fill="white" fill-opacity="0.1"/>
</svg>
