<svg width="101" height="101" viewBox="0 0 101 101" fill="none" xmlns="http://www.w3.org/2000/svg">
<path fill-rule="evenodd" clip-rule="evenodd" d="M100.667 0.5H0.666504V100.5H100.667V0.5ZM38.215 39.8089H28.6046C29.5685 39.0787 30.5277 38.3592 31.4755 37.6482C41.281 30.2929 49.869 23.8509 49.869 15.8934C49.869 10.7015 45.7266 7.16667 39.4301 7.16667C33.0784 7.16667 27.2238 11.3091 25.0145 19.7596H25.3459C27.5552 14.3469 30.8139 12.5794 33.9069 12.5794C37.2208 12.5794 39.5958 14.5125 39.5958 18.7654C39.5958 26.0561 33.9621 33.4572 25.6773 40.9135L18.0552 47.8176L18 48.0385H42.744L48.8748 35.6112H48.5434C45.837 39.4223 41.9708 39.8089 38.215 39.8089ZM52.1525 34.3961C52.1525 43.1781 56.4054 48.7013 65.0768 48.7013C77.1174 48.7013 84.4081 34.7828 84.4081 21.527C84.4081 12.6899 80.1552 7.16667 71.4837 7.16667C59.4431 7.16667 52.1525 21.0852 52.1525 34.3961ZM75.1843 13.6288C75.1843 23.5154 69.8268 47.8728 64.3036 47.8728C62.1495 47.8728 61.3763 45.7187 61.3763 42.2391C61.3763 32.3525 66.7338 7.99515 72.257 7.99515C74.3558 7.99515 75.1843 10.1492 75.1843 13.6288ZM30.8969 84.8089H40.5073C44.2631 84.8089 48.1294 84.4223 50.8358 80.6112H51.1671L45.0364 93.0385H20.2924L20.3476 92.8176L27.9696 85.9135C36.2545 78.4572 41.8881 71.0561 41.8881 63.7654C41.8881 59.5125 39.5132 57.5794 36.1992 57.5794C33.1062 57.5794 29.8475 59.3469 27.6382 64.7596H27.3068C29.5161 56.3091 35.3707 52.1667 41.7224 52.1667C48.0189 52.1667 52.1613 55.7015 52.1613 60.8934C52.1613 68.8509 43.5734 75.2928 33.7678 82.6482L33.7654 82.65C32.8184 83.3604 31.86 84.0793 30.8969 84.8089ZM74.3155 83.3176H79.2311L82.048 76.8002H81.7166C80.8329 77.6839 79.8387 77.7944 78.1817 77.7944H75.5306L81.109 51.5039H80.7776L52.0569 80.3351L52.6092 83.3176H64.1528L63.3243 87.2943C62.6063 90.8292 61.9987 92.7071 59.7342 92.7071L59.6789 93.0385H74.7021L74.7573 92.7071C72.4928 92.7071 72.769 90.8292 73.487 87.2943L74.3155 83.3176ZM55.9232 77.7944L67.9085 65.7538L65.3679 77.7944H55.9232Z" fill="#D9D9D9"/>
</svg>
