<svg width="100" height="100" viewBox="0 0 100 100" fill="none" xmlns="http://www.w3.org/2000/svg">
<path fill-rule="evenodd" clip-rule="evenodd" d="M100 0H0V100H100V0ZM37.5485 39.3089H27.9381C28.9001 38.5801 29.8573 37.862 30.8033 37.1524L30.8054 37.1509L30.8086 37.1484L30.809 37.1482C40.6145 29.7929 49.2025 23.3509 49.2025 15.3934C49.2025 10.2015 45.0601 6.66667 38.7636 6.66667C32.4119 6.66667 26.5573 10.8091 24.348 19.2596H24.6794C26.8887 13.8469 30.1474 12.0794 33.2404 12.0794C36.5543 12.0794 38.9293 14.0125 38.9293 18.2654C38.9293 25.5561 33.2956 32.9572 25.0108 40.4135L17.3887 47.3176L17.3335 47.5385H42.0775L48.2083 35.1112H47.8769C45.1705 38.9223 41.3043 39.3089 37.5485 39.3089ZM51.486 33.8961C51.486 42.6781 55.7389 48.2013 64.4103 48.2013C76.4509 48.2013 83.7416 34.2828 83.7416 21.027C83.7416 12.1899 79.4887 6.66667 70.8172 6.66667C58.7766 6.66667 51.486 20.5852 51.486 33.8961ZM74.5178 13.1288C74.5178 23.0154 69.1603 47.3728 63.6371 47.3728C61.483 47.3728 60.7098 45.2187 60.7098 41.7391C60.7098 31.8525 66.0673 7.49515 71.5905 7.49515C73.6893 7.49515 74.5178 9.6492 74.5178 13.1288ZM30.2304 84.3089H39.8408C43.5966 84.3089 47.4629 83.9223 50.1693 80.1112H50.5006L44.3699 92.5385H19.6258L19.6811 92.3176L27.3031 85.4135C35.588 77.9572 41.2216 70.5561 41.2216 63.2654C41.2216 59.0125 38.8466 57.0794 35.5327 57.0794C32.4397 57.0794 29.181 58.8469 26.9717 64.2596H26.6403C28.8496 55.8091 34.7042 51.6667 41.0559 51.6667C47.3524 51.6667 51.4948 55.2015 51.4948 60.3934C51.4948 68.3509 42.9069 74.7928 33.1013 82.1482L33.0989 82.15C32.1519 82.8604 31.1935 83.5793 30.2304 84.3089ZM73.649 82.8176H78.5646L81.3815 76.3002H81.0501C80.1664 77.1839 79.1722 77.2944 77.5152 77.2944H74.8641L80.4425 51.0039H80.1111L51.3904 79.8351L51.9427 82.8176H63.4863L62.6578 86.7943C61.9397 90.3292 61.3322 92.2071 59.0677 92.2071L59.0124 92.5385H74.0356L74.0908 92.2071C71.8263 92.2071 72.1025 90.3292 72.8205 86.7943L73.649 82.8176ZM55.2567 77.2944L67.242 65.2538L64.7014 77.2944H55.2567Z" fill="current"/>
</svg>
