<svg width="100" height="100" viewBox="0 0 100 100" fill="none" xmlns="http://www.w3.org/2000/svg">
<g clip-path="url(#clip0_579_9803)">
<rect width="100" height="100" fill="black"/>
<path fill-rule="evenodd" clip-rule="evenodd" d="M100 0H0V100H100V0ZM36.4428 9.26638C33.6651 9.08887 31.0245 9.00012 28.5213 9.00012C26.0827 9.00012 23.4745 9.08887 20.6967 9.26638C17.9189 9.44388 15.02 9.79082 12 10.3072V18.8758H17.9593V15.1966C18.4922 15.1321 19.0656 15.0595 19.6793 14.9788C20.293 14.882 21.0116 14.8013 21.8353 14.7367C22.6589 14.656 23.6118 14.5915 24.6938 14.5431C25.792 14.4947 27.084 14.4705 28.5698 14.4705C29.4096 14.4705 30.3059 14.4866 31.2587 14.5189C32.2277 14.5511 33.1806 14.5996 34.1172 14.6641C35.0701 14.7287 35.9826 14.8093 36.8547 14.9062C37.7267 14.9868 38.5019 15.0837 39.1802 15.1966V24.0073H12V44.5332C15.02 45.0495 17.927 45.3965 20.7209 45.574C23.5149 45.7515 26.1634 45.8402 28.6667 45.8402C31.1053 45.8402 33.7054 45.7515 36.4671 45.574C39.2287 45.3965 42.1357 45.0495 45.188 44.5332V35.0932H39.1802V39.6921C38.1143 39.8374 36.9435 39.9665 35.6676 40.0794C34.4079 40.1924 33.011 40.2731 31.4767 40.3215C30.9922 40.3537 30.5078 40.3699 30.0233 40.3699H28.5698H27.1405C26.6722 40.3699 26.1957 40.3537 25.7112 40.3215C24.1932 40.2731 22.7881 40.1924 21.4961 40.0794C20.2041 39.9665 19.0252 39.8374 17.9593 39.6921V29.9617H45.188V10.3072C42.1357 9.79082 39.2206 9.44388 36.4428 9.26638ZM78.2791 9.26638C75.4851 9.08887 72.8366 9.00012 70.3333 9.00012C67.8947 9.00012 65.2946 9.08887 62.533 9.26638C59.7713 9.44388 56.8643 9.79082 53.812 10.3072V44.5332C56.8643 45.0495 59.7794 45.3965 62.5572 45.574C65.335 45.7515 67.9755 45.8402 70.4787 45.8402C72.9173 45.8402 75.5255 45.7515 78.3033 45.574C81.0811 45.3965 83.98 45.0495 87 44.5332V10.3072C83.98 9.79082 81.073 9.44388 78.2791 9.26638ZM71.8353 40.3699H70.3818H68.9525C68.4842 40.3699 68.0078 40.3537 67.5233 40.3215C66.0052 40.2731 64.6001 40.1924 63.3081 40.0794C62.0323 39.9665 60.8695 39.8374 59.8198 39.6921V15.1966C60.3366 15.1321 60.9018 15.0595 61.5155 14.9788C62.1292 14.882 62.8479 14.8013 63.6715 14.7367C64.4952 14.656 65.448 14.5915 66.53 14.5431C67.6121 14.4947 68.896 14.4705 70.3818 14.4705C71.2216 14.4705 72.126 14.4866 73.095 14.5189C74.064 14.5511 75.0168 14.5996 75.9535 14.6641C76.9063 14.7287 77.8188 14.8093 78.6909 14.9062C79.5791 14.9868 80.3624 15.0837 81.0407 15.1966V39.6921C79.9425 39.8374 78.7636 39.9665 77.5039 40.0794C76.2603 40.1924 74.8553 40.2731 73.2888 40.3215C72.8043 40.3537 72.3198 40.3699 71.8353 40.3699ZM28.5213 54.16C31.0245 54.16 33.6651 54.2488 36.4428 54.4263C39.2206 54.6038 42.1357 54.9507 45.188 55.4671V75.1216H17.9593V84.852C19.0252 84.9973 20.2041 85.1264 21.4961 85.2393C22.7881 85.3523 24.1932 85.433 25.7112 85.4814C26.1957 85.5136 26.6722 85.5298 27.1405 85.5298H28.5698H30.0233C30.5078 85.5298 30.9922 85.5136 31.4767 85.4814C33.011 85.433 34.4079 85.3523 35.6676 85.2393C36.9435 85.1264 38.1143 84.9973 39.1802 84.852V80.2531H45.188V89.6931C42.1357 90.2094 39.2287 90.5564 36.4671 90.7339C33.7054 90.9114 31.1053 91.0001 28.6667 91.0001C26.1634 91.0001 23.5149 90.9114 20.7209 90.7339C17.927 90.5564 15.02 90.2094 12 89.6931V69.1672H39.1802V60.3565C38.5019 60.2436 37.7267 60.1467 36.8547 60.0661C35.9826 59.9692 35.0701 59.8886 34.1172 59.824C33.1806 59.7595 32.2277 59.7111 31.2587 59.6788C30.3059 59.6465 29.4096 59.6304 28.5698 59.6304C27.084 59.6304 25.792 59.6546 24.6938 59.703C23.6118 59.7514 22.6589 59.8159 21.8353 59.8966C21.0116 59.9612 20.293 60.0419 19.6793 60.1387C19.0656 60.2194 18.4922 60.292 17.9593 60.3565V64.0357H12V55.4671C15.02 54.9507 17.9189 54.6038 20.6967 54.4263C23.4745 54.2488 26.0827 54.16 28.5213 54.16ZM58.3178 69.1672V54.7894H52.3585V75.1216H79.5872V91.0001H85.595V54.7894H79.5872V69.1672H58.3178Z" fill="white"/>
</g>
<rect x="0.5" y="0.5" width="99" height="99" stroke="white"/>
<defs>
<clipPath id="clip0_579_9803">
<rect width="100" height="100" fill="white"/>
</clipPath>
</defs>
</svg>
