<svg width="75" height="75" viewBox="0 0 75 75" fill="none" xmlns="http://www.w3.org/2000/svg">
<rect x="0.5" y="0.5" width="74" height="74" fill="#0E0C0C"/>
<rect x="0.5" y="0.5" width="74" height="74" stroke="#333333"/>
<mask id="path-2-inside-1_117_2307" fill="white">
<path fill-rule="evenodd" clip-rule="evenodd" d="M41.3414 24.1932C45.4383 22.7561 48.3759 18.8545 48.3759 14.2667C48.3759 8.45849 43.6675 3.75 37.8592 3.75C32.051 3.75 27.3425 8.45849 27.3425 14.2667C27.3425 18.8544 30.2801 22.756 34.3768 24.1931L7.5 70.7452H68.2182L41.3414 24.1932Z"/>
</mask>
<path fill-rule="evenodd" clip-rule="evenodd" d="M41.3414 24.1932C45.4383 22.7561 48.3759 18.8545 48.3759 14.2667C48.3759 8.45849 43.6675 3.75 37.8592 3.75C32.051 3.75 27.3425 8.45849 27.3425 14.2667C27.3425 18.8544 30.2801 22.756 34.3768 24.1931L7.5 70.7452H68.2182L41.3414 24.1932Z" fill="#161616"/>
<path d="M41.3414 24.1932L41.2173 23.8394L40.7905 23.9891L41.0167 24.3807L41.3414 24.1932ZM34.3768 24.1931L34.7016 24.3806L34.9277 23.989L34.501 23.8393L34.3768 24.1931ZM7.5 70.7452L7.17524 70.5577L6.85048 71.1202H7.5V70.7452ZM68.2182 70.7452V71.1202H68.8677L68.543 70.5577L68.2182 70.7452ZM48.0009 14.2667C48.0009 18.6903 45.1686 22.4533 41.2173 23.8394L41.4655 24.5471C45.708 23.0589 48.7509 19.0187 48.7509 14.2667H48.0009ZM37.8592 4.125C43.4604 4.125 48.0009 8.66559 48.0009 14.2667H48.7509C48.7509 8.25138 43.8746 3.375 37.8592 3.375V4.125ZM27.7175 14.2667C27.7175 8.66559 32.2581 4.125 37.8592 4.125V3.375C31.8439 3.375 26.9675 8.25138 26.9675 14.2667H27.7175ZM34.501 23.8393C30.5498 22.4532 27.7175 18.6902 27.7175 14.2667H26.9675C26.9675 19.0186 30.0104 23.0588 34.2527 24.547L34.501 23.8393ZM7.82476 70.9327L34.7016 24.3806L34.0521 24.0056L7.17524 70.5577L7.82476 70.9327ZM68.2182 70.3702H7.5V71.1202H68.2182V70.3702ZM41.0167 24.3807L67.8934 70.9327L68.543 70.5577L41.6662 24.0057L41.0167 24.3807Z" fill="white" mask="url(#path-2-inside-1_117_2307)"/>
</svg>
