<svg width="100" height="100" viewBox="0 0 100 100" fill="none" xmlns="http://www.w3.org/2000/svg">
<g clip-path="url(#clip0_117_2250)">
<rect width="100" height="100" fill="black"/>
<mask id="path-3-inside-1_117_2250" fill="white">
<path fill-rule="evenodd" clip-rule="evenodd" d="M88.9995 23.9995L75.9995 10.9995L59.1928 27.8061L59.1929 4.03876L40.8081 4.03876L40.8081 27.808L24 11L11 24L27.8077 40.8076L4.03847 40.8076L4.03847 59.1924L27.8066 59.1924L10.9996 75.9994L23.9995 88.9994L40.8081 72.1909V95.9625H59.1928V72.1928L76 88.9999L89 75.9999L72.1924 59.1924L95.9623 59.1924L95.9623 40.8076L72.1913 40.8076L88.9995 23.9995Z"/>
</mask>
<path d="M75.9995 10.9995L76.353 10.6459L75.9995 10.2924L75.6459 10.6459L75.9995 10.9995ZM88.9995 23.9995L89.353 24.353L89.7066 23.9995L89.353 23.6459L88.9995 23.9995ZM59.1928 27.8061H58.6928V29.0132L59.5464 28.1597L59.1928 27.8061ZM59.1929 4.03876L59.6929 4.03876L59.6929 3.53876L59.1929 3.53876L59.1929 4.03876ZM40.8081 4.03876L40.8081 3.53876L40.3081 3.53876L40.3081 4.03876L40.8081 4.03876ZM40.8081 27.808L40.4545 28.1616L41.3081 29.0152L41.3081 27.808H40.8081ZM24 11L24.3536 10.6464L24 10.2929L23.6465 10.6464L24 11ZM11 24L10.6465 23.6464L10.2929 24L10.6465 24.3535L11 24ZM27.8077 40.8076V41.3076L29.0148 41.3076L28.1613 40.4541L27.8077 40.8076ZM4.03847 40.8076L4.03847 40.3076L3.53847 40.3076L3.53847 40.8076L4.03847 40.8076ZM4.03847 59.1924H3.53847V59.6924H4.03847V59.1924ZM27.8066 59.1924L28.1601 59.5459L29.0137 58.6924L27.8066 58.6924V59.1924ZM10.9996 75.9994L10.646 75.6459L10.2924 75.9994L10.646 76.353L10.9996 75.9994ZM23.9995 88.9994L23.646 89.353L23.9995 89.7065L24.3531 89.353L23.9995 88.9994ZM40.8081 72.1909H41.3081L41.3081 70.9838L40.4545 71.8373L40.8081 72.1909ZM40.8081 95.9625H40.3081V96.4625H40.8081V95.9625ZM59.1928 95.9625V96.4625H59.6928V95.9625H59.1928ZM59.1928 72.1928L59.5464 71.8392L58.6928 70.9857V72.1928H59.1928ZM76 88.9999L75.6464 89.3535L76 89.707L76.3535 89.3535L76 88.9999ZM89 75.9999L89.3535 76.3535L89.7071 75.9999L89.3535 75.6464L89 75.9999ZM72.1924 59.1924V58.6924H70.9853L71.8389 59.5459L72.1924 59.1924ZM95.9623 59.1924V59.6924H96.4623V59.1924H95.9623ZM95.9623 40.8076L96.4623 40.8076V40.3076H95.9623L95.9623 40.8076ZM72.1913 40.8076L71.8378 40.4541L70.9842 41.3076L72.1913 41.3076V40.8076ZM75.6459 11.353L88.6459 24.353L89.353 23.6459L76.353 10.6459L75.6459 11.353ZM59.5464 28.1597L76.353 11.353L75.6459 10.6459L58.8393 27.4526L59.5464 28.1597ZM58.6929 4.03876L58.6928 27.8061H59.6928L59.6929 4.03876L58.6929 4.03876ZM40.8081 4.53876L59.1929 4.53876L59.1929 3.53876L40.8081 3.53876L40.8081 4.53876ZM41.3081 27.808L41.3081 4.03876L40.3081 4.03876L40.3081 27.808H41.3081ZM23.6465 11.3535L40.4545 28.1616L41.1616 27.4545L24.3536 10.6464L23.6465 11.3535ZM11.3536 24.3535L24.3536 11.3535L23.6465 10.6464L10.6465 23.6464L11.3536 24.3535ZM28.1613 40.4541L11.3536 23.6464L10.6465 24.3535L27.4542 41.1612L28.1613 40.4541ZM4.03847 41.3076L27.8077 41.3076V40.3076L4.03847 40.3076L4.03847 41.3076ZM4.53847 59.1924L4.53847 40.8076L3.53847 40.8076L3.53847 59.1924H4.53847ZM27.8066 58.6924L4.03847 58.6924V59.6924L27.8066 59.6924V58.6924ZM11.3531 76.353L28.1601 59.5459L27.453 58.8388L10.646 75.6459L11.3531 76.353ZM24.3531 88.6459L11.3531 75.6459L10.646 76.353L23.646 89.353L24.3531 88.6459ZM40.4545 71.8373L23.646 88.6459L24.3531 89.353L41.1616 72.5444L40.4545 71.8373ZM41.3081 95.9625V72.1909H40.3081V95.9625H41.3081ZM59.1928 95.4625H40.8081V96.4625H59.1928V95.4625ZM58.6928 72.1928V95.9625H59.6928V72.1928H58.6928ZM76.3535 88.6464L59.5464 71.8392L58.8393 72.5463L75.6464 89.3535L76.3535 88.6464ZM88.6464 75.6464L75.6464 88.6464L76.3535 89.3535L89.3535 76.3535L88.6464 75.6464ZM71.8389 59.5459L88.6464 76.3535L89.3535 75.6464L72.546 58.8388L71.8389 59.5459ZM95.9623 58.6924L72.1924 58.6924V59.6924L95.9623 59.6924V58.6924ZM95.4623 40.8076L95.4623 59.1924H96.4623L96.4623 40.8076L95.4623 40.8076ZM72.1913 41.3076L95.9623 41.3076L95.9623 40.3076L72.1913 40.3076V41.3076ZM88.6459 23.6459L71.8378 40.4541L72.5449 41.1612L89.353 24.353L88.6459 23.6459Z" fill="white" mask="url(#path-3-inside-1_117_2250)"/>
</g>
<rect x="0.5" y="0.5" width="99" height="99" stroke="white"/>
<defs>
<clipPath id="clip0_117_2250">
<rect width="100" height="100" fill="white"/>
</clipPath>
</defs>
</svg>
