<svg width="100" height="100" viewBox="0 0 100 100" fill="none" xmlns="http://www.w3.org/2000/svg">
<rect x="0.5" y="0.5" width="99" height="99" fill="black"/>
<rect x="0.5" y="0.5" width="99" height="99" stroke="white"/>
<mask id="path-2-outside-1_117_2252" maskUnits="userSpaceOnUse" x="11" y="8.00012" width="77" height="84" fill="black">
<rect fill="white" x="11" y="8.00012" width="77" height="84"/>
<path d="M28.5213 9.00012C31.0245 9.00012 33.6651 9.08887 36.4428 9.26638C39.2206 9.44388 42.1357 9.79082 45.188 10.3072V29.9617H17.9593V39.6921C19.0252 39.8374 20.2041 39.9665 21.4961 40.0794C22.7881 40.1924 24.1932 40.2731 25.7112 40.3215C26.1957 40.3537 26.6722 40.3699 27.1405 40.3699C27.6089 40.3699 28.0853 40.3699 28.5698 40.3699C29.0543 40.3699 29.5388 40.3699 30.0233 40.3699C30.5078 40.3699 30.9922 40.3537 31.4767 40.3215C33.011 40.2731 34.4079 40.1924 35.6676 40.0794C36.9435 39.9665 38.1143 39.8374 39.1802 39.6921V35.0932H45.188V44.5332C42.1357 45.0495 39.2287 45.3965 36.4671 45.574C33.7054 45.7515 31.1053 45.8402 28.6667 45.8402C26.1634 45.8402 23.5149 45.7515 20.7209 45.574C17.927 45.3965 15.02 45.0495 12 44.5332V24.0073H39.1802V15.1966C38.5019 15.0837 37.7267 14.9868 36.8547 14.9062C35.9826 14.8093 35.0701 14.7287 34.1173 14.6641C33.1806 14.5996 32.2277 14.5511 31.2587 14.5189C30.3059 14.4866 29.4096 14.4705 28.5698 14.4705C27.084 14.4705 25.792 14.4947 24.6938 14.5431C23.6118 14.5915 22.6589 14.656 21.8353 14.7367C21.0116 14.8013 20.293 14.882 19.6793 14.9788C19.0656 15.0595 18.4922 15.1321 17.9593 15.1966V18.8758H12V10.3072C15.02 9.79082 17.9189 9.44388 20.6967 9.26638C23.4745 9.08887 26.0827 9.00012 28.5213 9.00012Z"/>
<path d="M70.3333 9.00012C72.8366 9.00012 75.4851 9.08887 78.2791 9.26638C81.073 9.44388 83.98 9.79082 87 10.3072V44.5332C83.98 45.0495 81.0811 45.3965 78.3033 45.574C75.5255 45.7515 72.9173 45.8402 70.4787 45.8402C67.9755 45.8402 65.335 45.7515 62.5572 45.574C59.7794 45.3965 56.8643 45.0495 53.812 44.5332V10.3072C56.8643 9.79082 59.7713 9.44388 62.533 9.26638C65.2946 9.08887 67.8947 9.00012 70.3333 9.00012ZM70.3818 40.3699C70.8663 40.3699 71.3508 40.3699 71.8353 40.3699C72.3198 40.3699 72.8043 40.3537 73.2888 40.3215C74.8553 40.2731 76.2603 40.1924 77.5039 40.0794C78.7636 39.9665 79.9425 39.8374 81.0407 39.6921V15.1966C80.3624 15.0837 79.5791 14.9868 78.6909 14.9062C77.8188 14.8093 76.9063 14.7287 75.9535 14.6641C75.0168 14.5996 74.064 14.5511 73.095 14.5189C72.126 14.4866 71.2216 14.4705 70.3818 14.4705C68.896 14.4705 67.6121 14.4947 66.53 14.5431C65.448 14.5915 64.4952 14.656 63.6715 14.7367C62.8479 14.8013 62.1292 14.882 61.5155 14.9788C60.9018 15.0595 60.3366 15.1321 59.8198 15.1966V39.6921C60.8695 39.8374 62.0323 39.9665 63.3081 40.0794C64.6001 40.1924 66.0052 40.2731 67.5233 40.3215C68.0078 40.3537 68.4842 40.3699 68.9525 40.3699C69.4209 40.3699 69.8973 40.3699 70.3818 40.3699Z"/>
<path d="M28.5213 54.16C31.0245 54.16 33.6651 54.2488 36.4428 54.4263C39.2206 54.6038 42.1357 54.9507 45.188 55.4671V75.1216H17.9593V84.852C19.0252 84.9973 20.2041 85.1264 21.4961 85.2393C22.7881 85.3523 24.1932 85.433 25.7112 85.4814C26.1957 85.5136 26.6722 85.5298 27.1405 85.5298C27.6089 85.5298 28.0853 85.5298 28.5698 85.5298C29.0543 85.5298 29.5388 85.5298 30.0233 85.5298C30.5078 85.5298 30.9922 85.5136 31.4767 85.4814C33.011 85.433 34.4079 85.3523 35.6676 85.2393C36.9435 85.1264 38.1143 84.9973 39.1802 84.852V80.2531H45.188V89.6931C42.1357 90.2094 39.2287 90.5564 36.4671 90.7339C33.7054 90.9114 31.1053 91.0001 28.6667 91.0001C26.1634 91.0001 23.5149 90.9114 20.7209 90.7339C17.927 90.5564 15.02 90.2094 12 89.6931V69.1672H39.1802V60.3565C38.5019 60.2436 37.7267 60.1467 36.8547 60.0661C35.9826 59.9692 35.0701 59.8886 34.1173 59.824C33.1806 59.7595 32.2277 59.7111 31.2587 59.6788C30.3059 59.6465 29.4096 59.6304 28.5698 59.6304C27.084 59.6304 25.792 59.6546 24.6938 59.703C23.6118 59.7514 22.6589 59.8159 21.8353 59.8966C21.0116 59.9612 20.293 60.0419 19.6793 60.1387C19.0656 60.2194 18.4922 60.292 17.9593 60.3565V64.0357H12V55.4671C15.02 54.9507 17.9189 54.6038 20.6967 54.4263C23.4745 54.2488 26.0827 54.16 28.5213 54.16Z"/>
<path d="M58.3178 54.7894V69.1672H79.5872V54.7894H85.595V91.0001H79.5872V75.1216H52.3585V54.7894H58.3178Z"/>
</mask>
<path d="M28.5213 9.00012C31.0245 9.00012 33.6651 9.08887 36.4428 9.26638C39.2206 9.44388 42.1357 9.79082 45.188 10.3072V29.9617H17.9593V39.6921C19.0252 39.8374 20.2041 39.9665 21.4961 40.0794C22.7881 40.1924 24.1932 40.2731 25.7112 40.3215C26.1957 40.3537 26.6722 40.3699 27.1405 40.3699C27.6089 40.3699 28.0853 40.3699 28.5698 40.3699C29.0543 40.3699 29.5388 40.3699 30.0233 40.3699C30.5078 40.3699 30.9922 40.3537 31.4767 40.3215C33.011 40.2731 34.4079 40.1924 35.6676 40.0794C36.9435 39.9665 38.1143 39.8374 39.1802 39.6921V35.0932H45.188V44.5332C42.1357 45.0495 39.2287 45.3965 36.4671 45.574C33.7054 45.7515 31.1053 45.8402 28.6667 45.8402C26.1634 45.8402 23.5149 45.7515 20.7209 45.574C17.927 45.3965 15.02 45.0495 12 44.5332V24.0073H39.1802V15.1966C38.5019 15.0837 37.7267 14.9868 36.8547 14.9062C35.9826 14.8093 35.0701 14.7287 34.1173 14.6641C33.1806 14.5996 32.2277 14.5511 31.2587 14.5189C30.3059 14.4866 29.4096 14.4705 28.5698 14.4705C27.084 14.4705 25.792 14.4947 24.6938 14.5431C23.6118 14.5915 22.6589 14.656 21.8353 14.7367C21.0116 14.8013 20.293 14.882 19.6793 14.9788C19.0656 15.0595 18.4922 15.1321 17.9593 15.1966V18.8758H12V10.3072C15.02 9.79082 17.9189 9.44388 20.6967 9.26638C23.4745 9.08887 26.0827 9.00012 28.5213 9.00012Z" stroke="white" mask="url(#path-2-outside-1_117_2252)"/>
<path d="M70.3333 9.00012C72.8366 9.00012 75.4851 9.08887 78.2791 9.26638C81.073 9.44388 83.98 9.79082 87 10.3072V44.5332C83.98 45.0495 81.0811 45.3965 78.3033 45.574C75.5255 45.7515 72.9173 45.8402 70.4787 45.8402C67.9755 45.8402 65.335 45.7515 62.5572 45.574C59.7794 45.3965 56.8643 45.0495 53.812 44.5332V10.3072C56.8643 9.79082 59.7713 9.44388 62.533 9.26638C65.2946 9.08887 67.8947 9.00012 70.3333 9.00012ZM70.3818 40.3699C70.8663 40.3699 71.3508 40.3699 71.8353 40.3699C72.3198 40.3699 72.8043 40.3537 73.2888 40.3215C74.8553 40.2731 76.2603 40.1924 77.5039 40.0794C78.7636 39.9665 79.9425 39.8374 81.0407 39.6921V15.1966C80.3624 15.0837 79.5791 14.9868 78.6909 14.9062C77.8188 14.8093 76.9063 14.7287 75.9535 14.6641C75.0168 14.5996 74.064 14.5511 73.095 14.5189C72.126 14.4866 71.2216 14.4705 70.3818 14.4705C68.896 14.4705 67.6121 14.4947 66.53 14.5431C65.448 14.5915 64.4952 14.656 63.6715 14.7367C62.8479 14.8013 62.1292 14.882 61.5155 14.9788C60.9018 15.0595 60.3366 15.1321 59.8198 15.1966V39.6921C60.8695 39.8374 62.0323 39.9665 63.3081 40.0794C64.6001 40.1924 66.0052 40.2731 67.5233 40.3215C68.0078 40.3537 68.4842 40.3699 68.9525 40.3699C69.4209 40.3699 69.8973 40.3699 70.3818 40.3699Z" stroke="white" mask="url(#path-2-outside-1_117_2252)"/>
<path d="M28.5213 54.16C31.0245 54.16 33.6651 54.2488 36.4428 54.4263C39.2206 54.6038 42.1357 54.9507 45.188 55.4671V75.1216H17.9593V84.852C19.0252 84.9973 20.2041 85.1264 21.4961 85.2393C22.7881 85.3523 24.1932 85.433 25.7112 85.4814C26.1957 85.5136 26.6722 85.5298 27.1405 85.5298C27.6089 85.5298 28.0853 85.5298 28.5698 85.5298C29.0543 85.5298 29.5388 85.5298 30.0233 85.5298C30.5078 85.5298 30.9922 85.5136 31.4767 85.4814C33.011 85.433 34.4079 85.3523 35.6676 85.2393C36.9435 85.1264 38.1143 84.9973 39.1802 84.852V80.2531H45.188V89.6931C42.1357 90.2094 39.2287 90.5564 36.4671 90.7339C33.7054 90.9114 31.1053 91.0001 28.6667 91.0001C26.1634 91.0001 23.5149 90.9114 20.7209 90.7339C17.927 90.5564 15.02 90.2094 12 89.6931V69.1672H39.1802V60.3565C38.5019 60.2436 37.7267 60.1467 36.8547 60.0661C35.9826 59.9692 35.0701 59.8886 34.1173 59.824C33.1806 59.7595 32.2277 59.7111 31.2587 59.6788C30.3059 59.6465 29.4096 59.6304 28.5698 59.6304C27.084 59.6304 25.792 59.6546 24.6938 59.703C23.6118 59.7514 22.6589 59.8159 21.8353 59.8966C21.0116 59.9612 20.293 60.0419 19.6793 60.1387C19.0656 60.2194 18.4922 60.292 17.9593 60.3565V64.0357H12V55.4671C15.02 54.9507 17.9189 54.6038 20.6967 54.4263C23.4745 54.2488 26.0827 54.16 28.5213 54.16Z" stroke="white" mask="url(#path-2-outside-1_117_2252)"/>
<path d="M58.3178 54.7894V69.1672H79.5872V54.7894H85.595V91.0001H79.5872V75.1216H52.3585V54.7894H58.3178Z" stroke="white" mask="url(#path-2-outside-1_117_2252)"/>
</svg>
