<svg width="100" height="100" viewBox="0 0 100 100" fill="none" xmlns="http://www.w3.org/2000/svg">
<rect x="0.5" y="0.5" width="99" height="99" fill="black"/>
<rect x="0.5" y="0.5" width="99" height="99" stroke="white"/>
<mask id="path-2-inside-1_117_2251" fill="white">
<path fill-rule="evenodd" clip-rule="evenodd" d="M55.1218 32.2578C60.5844 30.3417 64.5013 25.1394 64.5013 19.0224C64.5013 11.2781 58.2233 5.00012 50.479 5.00012C42.7347 5.00012 36.4567 11.2781 36.4567 19.0224C36.4567 25.1393 40.3735 30.3415 45.8358 32.2577L10 94.3271H90.9576L55.1218 32.2578Z"/>
</mask>
<path d="M55.1218 32.2578L54.9563 31.7859L54.3873 31.9855L54.6888 32.5078L55.1218 32.2578ZM45.8358 32.2577L46.2688 32.5077L46.5703 31.9855L46.0013 31.7858L45.8358 32.2577ZM10 94.3271L9.56699 94.0771L9.13397 94.8271H10V94.3271ZM90.9576 94.3271V94.8271H91.8236L91.3906 94.0771L90.9576 94.3271ZM64.0013 19.0224C64.0013 24.9205 60.2247 29.9379 54.9563 31.7859L55.2873 32.7296C60.944 30.7454 65.0013 25.3583 65.0013 19.0224H64.0013ZM50.479 5.50012C57.9471 5.50012 64.0013 11.5542 64.0013 19.0224H65.0013C65.0013 11.002 58.4994 4.50012 50.479 4.50012V5.50012ZM36.9567 19.0224C36.9567 11.5542 43.0108 5.50012 50.479 5.50012V4.50012C42.4586 4.50012 35.9567 11.002 35.9567 19.0224H36.9567ZM46.0013 31.7858C40.7331 29.9377 36.9567 24.9204 36.9567 19.0224H35.9567C35.9567 25.3582 40.0138 30.7452 45.6703 32.7295L46.0013 31.7858ZM10.433 94.5771L46.2688 32.5077L45.4028 32.0077L9.56699 94.0771L10.433 94.5771ZM90.9576 93.8271H10V94.8271H90.9576V93.8271ZM54.6888 32.5078L90.5246 94.5771L91.3906 94.0771L55.5549 32.0078L54.6888 32.5078Z" fill="white" mask="url(#path-2-inside-1_117_2251)"/>
</svg>
