<svg width="75" height="75" viewBox="0 0 75 75" fill="none" xmlns="http://www.w3.org/2000/svg">
<rect x="0.5" y="0.5" width="74" height="74" fill="#0E0C0C"/>
<rect x="0.5" y="0.5" width="74" height="74" stroke="#333333"/>
<path d="M27.1061 30.0441H20.4646C21.0336 29.6146 21.6001 29.1897 22.1617 28.7684C25.4836 26.2766 28.6314 23.9155 31.0808 21.5261C34.0529 18.6267 36.0366 15.649 36.0366 12.2975C36.0366 10.2961 35.2363 8.606 33.8251 7.41933C32.4168 6.23501 30.413 5.56244 28.0174 5.56244C23.157 5.56244 18.698 8.73789 17.0219 15.1491L16.9596 15.3871H17.2057H17.4542H17.5819L17.6301 15.2689C18.4492 13.2622 19.4564 11.947 20.5307 11.1337C21.6034 10.3217 22.7533 10.002 23.875 10.002C25.0814 10.002 26.0942 10.3533 26.8056 11.0695C27.5167 11.7856 27.9517 12.8916 27.9517 14.4515C27.9517 17.1357 26.9145 19.8541 25.0939 22.6056C23.2733 25.3571 20.6765 28.1306 17.5757 30.9214L17.5752 30.9218L11.8587 36.0998L11.8159 36.1385L11.8019 36.1945L11.7605 36.3602L11.7015 36.5963H11.9448H30.5028H30.621L30.6732 36.4904L35.2713 27.1699L35.4065 26.8959H35.1009H34.8524H34.7543L34.6975 26.9759C32.726 29.752 29.9154 30.0441 27.1061 30.0441ZM28.8253 64.0441H22.1838C22.7528 63.6146 23.3194 63.1897 23.881 62.7684C27.2029 60.2767 30.3507 57.9155 32.8001 55.5261C35.7722 52.6267 37.7558 49.649 37.7558 46.2975C37.7558 44.2961 36.9556 42.606 35.5444 41.4193C34.136 40.235 32.1323 39.5624 29.7367 39.5624C24.8762 39.5624 20.4173 42.7379 18.7411 49.1491L18.6789 49.3871H18.925H19.1735H19.3012L19.3494 49.2689C20.1685 47.2622 21.1756 45.947 22.25 45.1337C23.3227 44.3217 24.4726 44.002 25.5942 44.002C26.8006 44.002 27.8134 44.3533 28.5248 45.0695C29.236 45.7856 29.6709 46.8916 29.6709 48.4515C29.6709 51.1357 28.6338 53.8541 26.8131 56.6056C24.9925 59.3571 22.3958 62.1306 19.2949 64.9214L19.2945 64.9218L13.578 70.0998L13.5352 70.1385L13.5212 70.1945L13.4798 70.3602L13.4207 70.5963H13.6641H32.2221H32.3402L32.3925 70.4904L36.9906 61.1699L37.1258 60.8959H36.8202H36.5716H36.4735L36.4167 60.9759C34.4453 63.752 31.6347 64.0441 28.8253 64.0441ZM57.8682 63.3057H57.993L58.0426 63.191L60.1552 58.303L60.2699 58.0376H59.9808H59.7323H59.6536L59.5979 58.0933C58.9949 58.6963 58.3232 58.7832 57.0811 58.7832H55.3273L59.4625 39.2948L59.5112 39.0654H59.2766H59.0281H58.9491L58.8935 39.1213L37.3529 60.7447L37.2825 60.8153L37.3007 60.9133L37.7149 63.1503L37.7437 63.3057H37.9017H46.3257L45.752 66.0594L45.7518 66.0604C45.4814 67.3916 45.2375 68.3752 44.862 69.0274C44.677 69.3487 44.4648 69.5804 44.2094 69.7332C43.9546 69.8857 43.6429 69.9678 43.2455 69.9678H43.0845L43.058 70.1265L43.0166 70.3751L42.9797 70.5963H43.204H54.4714H54.6324L54.6588 70.4375L54.7002 70.189L54.7371 69.9678H54.5128C54.1114 69.9678 53.8562 69.8841 53.6924 69.7495C53.531 69.6168 53.4286 69.41 53.3859 69.0965C53.3428 68.7805 53.3633 68.3762 53.4312 67.8765C53.4989 67.3786 53.6116 66.7992 53.7463 66.136L54.3359 63.3057H57.8682ZM37.3692 26.1745C37.3692 29.4956 38.1731 32.2284 39.8234 34.1333C41.4774 36.0426 43.9583 37.0934 47.2524 37.0934C51.8506 37.0934 55.5281 34.4334 58.0475 30.5445C60.5659 26.6572 61.9409 21.5251 61.9409 16.5227C61.9409 13.1812 61.1371 10.4381 59.4869 8.52792C57.8328 6.61322 55.3518 5.56244 52.0576 5.56244C47.4594 5.56244 43.7819 8.22248 41.2625 12.1166C38.7441 16.0091 37.3692 21.1516 37.3692 26.1745ZM54.6431 10.5991C54.6431 14.2838 53.6426 20.6867 52.1231 26.1704C51.3634 28.9119 50.4771 31.4123 49.5269 33.2235C49.0515 34.1297 48.5649 34.854 48.0771 35.3493C47.5875 35.8463 47.1176 36.092 46.6725 36.092C46.3019 36.092 46.0012 36 45.755 35.8319C45.5076 35.663 45.3033 35.4089 45.1405 35.0665C44.8123 34.3757 44.667 33.3542 44.667 32.0568C44.667 28.372 45.6675 21.9691 47.187 16.4854C47.9466 13.744 48.833 11.2435 49.7832 9.43231C50.2586 8.52611 50.7451 7.8018 51.233 7.30657C51.7225 6.80956 52.1925 6.5638 52.6376 6.5638C52.9968 6.5638 53.2924 6.65536 53.5371 6.82358C53.7832 6.9928 53.9891 7.24743 54.1545 7.59032C54.4878 8.28144 54.6431 9.3031 54.6431 10.5991ZM47.3166 58.7832H40.8444L49.0577 50.5321L47.3166 58.7832Z" fill="#161616" stroke="white" stroke-width="0.38"/>
</svg>
