<svg width="100" height="100" viewBox="0 0 100 100" fill="none" xmlns="http://www.w3.org/2000/svg">
<rect x="0.5" y="0.5" width="99" height="99" fill="black"/>
<rect x="0.5" y="0.5" width="99" height="99" stroke="white"/>
<mask id="path-2-inside-1_117_2249" fill="white">
<path fill-rule="evenodd" clip-rule="evenodd" d="M50.2504 4.00012L84.5008 44.5449H63.0032L84.5008 69.7253H62.9891L84.5008 95.1903H16L37.5116 69.7253H16L37.4976 44.5449H16L50.2504 4.00012Z"/>
</mask>
<path d="M84.5008 44.5449V45.0449H85.5777L84.8827 44.2222L84.5008 44.5449ZM50.2504 4.00012L50.6324 3.67746L50.2504 3.22531L49.8684 3.67746L50.2504 4.00012ZM63.0032 44.5449V44.0449H61.9189L62.6229 44.8695L63.0032 44.5449ZM84.5008 69.7253V70.2253H85.5851L84.8811 69.4007L84.5008 69.7253ZM62.9891 69.7253V69.2253H61.9122L62.6072 70.048L62.9891 69.7253ZM84.5008 95.1903V95.6903H85.5777L84.8827 94.8676L84.5008 95.1903ZM16 95.1903L15.618 94.8676L14.9231 95.6903H16V95.1903ZM37.5116 69.7253L37.8936 70.048L38.5886 69.2253H37.5116V69.7253ZM16 69.7253L15.6197 69.4007L14.9157 70.2253H16V69.7253ZM37.4976 44.5449L37.8778 44.8695L38.5819 44.0449H37.4976V44.5449ZM16 44.5449L15.618 44.2222L14.9231 45.0449H16V44.5449ZM84.8827 44.2222L50.6324 3.67746L49.8684 4.32278L84.1188 44.8676L84.8827 44.2222ZM63.0032 45.0449H84.5008V44.0449H63.0032V45.0449ZM84.8811 69.4007L63.3835 44.2203L62.6229 44.8695L84.1205 70.05L84.8811 69.4007ZM62.9891 70.2253H84.5008V69.2253H62.9891V70.2253ZM62.6072 70.048L84.1188 95.513L84.8827 94.8676L63.3711 69.4027L62.6072 70.048ZM84.5008 94.6903H16V95.6903H84.5008V94.6903ZM16.382 95.513L37.8936 70.048L37.1297 69.4027L15.618 94.8676L16.382 95.513ZM16 70.2253H37.5116V69.2253H16V70.2253ZM37.1173 44.2203L15.6197 69.4007L16.3803 70.05L37.8778 44.8695L37.1173 44.2203ZM16 45.0449H37.4976V44.0449H16V45.0449ZM49.8684 3.67746L15.618 44.2222L16.382 44.8676L50.6324 4.32278L49.8684 3.67746Z" fill="white" mask="url(#path-2-inside-1_117_2249)"/>
</svg>
