<svg width="100" height="100" viewBox="0 0 100 100" fill="none" xmlns="http://www.w3.org/2000/svg">
<g clip-path="url(#clip0_579_9805)">
<rect width="100" height="100" fill="black"/>
<path fill-rule="evenodd" clip-rule="evenodd" d="M100 0H0V100H100V0ZM69.6833 23.9482C69.6833 28.8819 67.8921 33.3973 64.9247 36.8796C74.7834 42.2637 81.4711 52.7263 81.4711 64.751C81.4711 82.278 67.2626 96.4865 49.7356 96.4865C32.2085 96.4865 18.0001 82.278 18.0001 64.751C18.0001 52.7265 24.6875 42.264 34.546 36.8798C31.5784 33.3975 29.7872 28.882 29.7872 23.9482C29.7872 12.9312 38.7182 4.00012 49.7352 4.00012C60.7522 4.00012 69.6833 12.9312 69.6833 23.9482Z" fill="white"/>
</g>
<rect x="0.5" y="0.5" width="99" height="99" stroke="white"/>
<defs>
<clipPath id="clip0_579_9805">
<rect width="100" height="100" fill="white"/>
</clipPath>
</defs>
</svg>
