<svg width="100" height="100" viewBox="0 0 100 100" fill="none" xmlns="http://www.w3.org/2000/svg">
<rect x="0.5" y="0.5" width="99" height="99" fill="black"/>
<rect x="0.5" y="0.5" width="99" height="99" stroke="white"/>
<mask id="path-2-inside-1_117_2253" fill="white">
<path fill-rule="evenodd" clip-rule="evenodd" d="M64.9246 36.8796C67.8921 33.3973 69.6832 28.8819 69.6832 23.9482C69.6832 12.9312 60.7522 4.00012 49.7352 4.00012C38.7182 4.00012 29.7871 12.9312 29.7871 23.9482C29.7871 28.882 31.5783 33.3975 34.5459 36.8798C24.6874 42.264 18 52.7265 18 64.751C18 82.278 32.2085 96.4865 49.7355 96.4865C67.2626 96.4865 81.471 82.278 81.471 64.751C81.471 52.7263 74.7834 42.2637 64.9246 36.8796Z"/>
</mask>
<path d="M64.9246 36.8796L64.544 36.5553L64.145 37.0235L64.6849 37.3184L64.9246 36.8796ZM34.5459 36.8798L34.7856 37.3186L35.3255 37.0238L34.9265 36.5555L34.5459 36.8798ZM69.1832 23.9482C69.1832 28.7586 67.4373 33.16 64.544 36.5553L65.3052 37.2039C68.3468 33.6345 70.1832 29.0052 70.1832 23.9482H69.1832ZM49.7352 4.50012C60.476 4.50012 69.1832 13.2073 69.1832 23.9482H70.1832C70.1832 12.655 61.0283 3.50012 49.7352 3.50012V4.50012ZM30.2871 23.9482C30.2871 13.2073 38.9943 4.50012 49.7352 4.50012V3.50012C38.442 3.50012 29.2871 12.655 29.2871 23.9482H30.2871ZM34.9265 36.5555C32.0331 33.1603 30.2871 28.7587 30.2871 23.9482H29.2871C29.2871 29.0053 31.1236 33.6348 34.1654 37.2041L34.9265 36.5555ZM18.5 64.751C18.5 52.9167 25.0811 42.6187 34.7856 37.3186L34.3063 36.441C24.2937 41.9094 17.5 52.5364 17.5 64.751H18.5ZM49.7355 95.9865C32.4846 95.9865 18.5 82.0019 18.5 64.751H17.5C17.5 82.5542 31.9323 96.9865 49.7355 96.9865V95.9865ZM80.971 64.751C80.971 82.0019 66.9864 95.9865 49.7355 95.9865V96.9865C67.5387 96.9865 81.971 82.5542 81.971 64.751H80.971ZM64.6849 37.3184C74.3897 42.6184 80.971 52.9165 80.971 64.751H81.971C81.971 52.5362 75.1771 41.909 65.1642 36.4407L64.6849 37.3184Z" fill="white" mask="url(#path-2-inside-1_117_2253)"/>
</svg>
